<svg width="34" height="34" viewBox="0 0 34 34" fill="none" xmlns="http://www.w3.org/2000/svg">
<g clip-path="url(#clip0_1276_7778)">
<path d="M22.2472 17.3664C22.6605 17.3385 22.9729 16.9808 22.9449 16.5676C22.917 16.1543 22.5593 15.8419 22.146 15.8699L22.2472 17.3664ZM14.4607 17.8928L22.2472 17.3664L22.146 15.8699L14.3596 16.3962L14.4607 17.8928Z" fill="#1C274C"/>
<path d="M19.623 24.1138C16.334 26.0705 14.6895 27.0489 13.6808 26.8593C12.7211 26.679 11.9321 25.9975 11.614 25.0744C11.2796 24.104 12.0082 22.3346 13.4653 18.7959C13.6993 18.2277 13.8163 17.9435 13.8521 17.6526C13.8868 17.3705 13.8658 17.0845 13.7905 16.8105C13.7127 16.5278 13.5556 16.2638 13.2414 15.7357C11.2847 12.4467 10.3063 10.8022 10.4959 9.7935C10.6762 8.83388 11.3577 8.04484 12.2808 7.72673C13.2512 7.39235 15.0206 8.12092 18.5594 9.57805M23.4007 21.8663L24.2877 21.3386C28.3628 18.9142 30.4003 17.702 30.2778 16.0274C30.1553 14.3528 27.963 13.4501 23.5784 11.6447L22.5488 11.2207" stroke="#1C274C" stroke-width="1.5" stroke-linecap="round"/>
</g>
<defs>
<clipPath id="clip0_1276_7778">
<rect width="24" height="24" fill="white" transform="translate(15.7615 0.0742188) rotate(40.8151)"/>
</clipPath>
</defs>
</svg>
